<?xml version="1.0" encoding="utf-8"?>
<!-- Generator: Adobe Illustrator 23.1.0, SVG Export Plug-In . SVG Version: 6.00 Build 0)  -->
<svg version="1.0" xmlns="http://www.w3.org/2000/svg" xmlns:xlink="http://www.w3.org/1999/xlink" x="0px" y="0px"
	 viewBox="0 0 2000 2000" style="enable-background:new 0 0 2000 2000;" xml:space="preserve">
<style type="text/css">
	.st0{fill:#59BA9A;}
	.st1{fill:#1A5B9C;}
	.st2{fill:#FFFFFF;}
	.st3{fill:url(#SVGID_1_);}
</style>
<g id="Цвета">
	<rect x="1533" y="-186" class="st0" width="467" height="149"/>
	<rect x="1066" y="-186" class="st1" width="467" height="149"/>
	<g>
		<g>
			<path class="st2" d="M1121.14-111.34v-18.72h3.13v7.88h8.87v-7.88h3.12v18.72h-3.12v-7.9h-8.87v7.9H1121.14z"/>
			<path class="st2" d="M1139.9-111.34v-18.72h12.09v2.94h-8.96v4.62h7.4v2.94h-7.4v5.29h8.96v2.94H1139.9z"/>
			<path class="st2" d="M1153.55-111.34l6.34-9.46l-6.16-9.26h3.83l4.26,6.59l4.22-6.59h3.86l-6.16,9.26l6.32,9.46h-3.83l-4.41-6.8
				l-4.42,6.8H1153.55z"/>
			<path class="st2" d="M1173.19-114.59v-3.21h3.21v3.21H1173.19z M1173.22-123.6v-3.21h3.21v3.21H1173.22z"/>
			<path class="st2" d="M1124.39-80.14v-15.3l-3.51,2.15v-3.46l3.51-2.11h3.2v18.72H1124.39z"/>
			<path class="st2" d="M1131.23-80.14l5.9-18.72h4.59l5.9,18.72h-3.22l-5.36-16.8h0.7l-5.29,16.8H1131.23z M1134.52-84.2v-2.92
				h9.83v2.92H1134.52z"/>
			<path class="st2" d="M1155.51-79.75c-0.95,0-1.84-0.2-2.67-0.59c-0.82-0.39-1.53-0.94-2.13-1.63s-1.02-1.5-1.28-2.42l3.02-0.81
				c0.12,0.5,0.34,0.94,0.67,1.3c0.33,0.36,0.71,0.65,1.14,0.84c0.44,0.2,0.89,0.3,1.36,0.3c0.61,0,1.16-0.15,1.66-0.44
				c0.5-0.29,0.9-0.69,1.2-1.19c0.29-0.5,0.44-1.05,0.44-1.66s-0.15-1.16-0.45-1.66c-0.3-0.5-0.7-0.89-1.2-1.18
				c-0.5-0.29-1.05-0.44-1.65-0.44c-0.72,0-1.32,0.13-1.79,0.39c-0.47,0.26-0.83,0.54-1.08,0.83l-2.68-0.86l0.57-9.91h10.17v2.94
				h-8.49l1.17-1.1l-0.42,6.89l-0.57-0.7c0.49-0.44,1.05-0.77,1.69-0.99c0.64-0.22,1.26-0.33,1.86-0.33c1.17,0,2.21,0.27,3.11,0.8
				c0.91,0.53,1.62,1.26,2.13,2.18c0.52,0.92,0.77,1.96,0.77,3.13s-0.3,2.23-0.91,3.18c-0.61,0.95-1.41,1.71-2.4,2.27
				C1157.77-80.03,1156.69-79.75,1155.51-79.75z"/>
			<path class="st2" d="M1165.2-80.14v-18.72h7.42c1.26,0,2.3,0.25,3.11,0.76s1.41,1.15,1.81,1.94c0.39,0.79,0.59,1.6,0.59,2.44
				c0,1.03-0.25,1.91-0.73,2.63s-1.16,1.2-2,1.46v-0.65c1.18,0.27,2.07,0.83,2.68,1.68c0.61,0.85,0.92,1.82,0.92,2.9
				c0,1.11-0.21,2.08-0.64,2.91c-0.42,0.83-1.06,1.48-1.89,1.95c-0.84,0.47-1.87,0.7-3.1,0.7H1165.2z M1168.37-91.39h4.21
				c0.45,0,0.85-0.09,1.21-0.26s0.64-0.43,0.84-0.77s0.31-0.75,0.31-1.25c0-0.65-0.21-1.19-0.62-1.63c-0.42-0.43-1-0.65-1.74-0.65
				h-4.21V-91.39z M1168.37-83.09h4.62c0.55,0,1.04-0.11,1.47-0.33c0.43-0.22,0.77-0.53,1.02-0.94c0.25-0.4,0.37-0.88,0.37-1.44
				c0-0.5-0.11-0.95-0.33-1.35c-0.22-0.4-0.53-0.72-0.95-0.96s-0.92-0.36-1.5-0.36h-4.71V-83.09z"/>
			<path class="st2" d="M1187.65-99.22c1.22,0,2.32,0.29,3.3,0.86c0.98,0.58,1.75,1.37,2.32,2.39c0.57,1.02,0.85,2.19,0.85,3.52
				v5.71c0,1.41-0.28,2.65-0.85,3.7c-0.57,1.05-1.36,1.87-2.39,2.44c-1.02,0.57-2.22,0.86-3.59,0.86c-0.94,0-1.84-0.16-2.68-0.49
				c-0.84-0.32-1.59-0.83-2.26-1.5l2.25-2.2c0.34,0.39,0.74,0.7,1.21,0.92c0.47,0.22,0.96,0.33,1.48,0.33
				c0.73,0,1.37-0.17,1.91-0.51s0.97-0.79,1.27-1.34c0.3-0.55,0.46-1.14,0.46-1.77v-3.11l0.56,0.62c-0.53,0.62-1.17,1.11-1.92,1.46
				c-0.75,0.35-1.55,0.53-2.38,0.53c-1.17,0-2.21-0.27-3.11-0.81c-0.91-0.54-1.62-1.27-2.13-2.19s-0.77-1.97-0.77-3.14
				c0-1.17,0.29-2.23,0.88-3.18c0.59-0.95,1.38-1.7,2.36-2.26C1185.4-98.94,1186.48-99.22,1187.65-99.22z M1187.65-96.23
				c-0.61,0-1.16,0.15-1.66,0.44c-0.5,0.29-0.9,0.69-1.2,1.19s-0.44,1.05-0.44,1.66c0,0.61,0.14,1.16,0.43,1.66
				c0.29,0.5,0.68,0.9,1.18,1.2c0.5,0.29,1.05,0.44,1.66,0.44s1.16-0.15,1.66-0.44c0.5-0.29,0.9-0.69,1.2-1.2
				c0.3-0.5,0.45-1.06,0.45-1.66c0-0.59-0.15-1.13-0.44-1.63c-0.29-0.5-0.69-0.9-1.19-1.2
				C1188.81-96.08,1188.25-96.23,1187.65-96.23z"/>
			<path class="st2" d="M1205.68-79.75c-1.87,0-3.48-0.41-4.81-1.23c-1.33-0.82-2.36-1.96-3.07-3.43c-0.71-1.46-1.07-3.16-1.07-5.1
				s0.36-3.63,1.07-5.1c0.71-1.46,1.74-2.61,3.07-3.43c1.33-0.82,2.94-1.23,4.81-1.23c2.16,0,3.96,0.54,5.39,1.62
				c1.44,1.08,2.45,2.53,3.03,4.36l-3.16,0.87c-0.36-1.22-0.98-2.18-1.86-2.87c-0.88-0.69-2.01-1.03-3.41-1.03
				c-1.26,0-2.3,0.28-3.14,0.85c-0.84,0.56-1.46,1.35-1.88,2.37c-0.42,1.02-0.64,2.21-0.64,3.58c0,1.37,0.21,2.56,0.63,3.58
				c0.42,1.02,1.05,1.81,1.89,2.37c0.84,0.56,1.89,0.84,3.15,0.84c1.39,0,2.53-0.35,3.41-1.04c0.88-0.69,1.5-1.65,1.86-2.86
				l3.16,0.87c-0.58,1.83-1.59,3.28-3.03,4.36S1207.83-79.75,1205.68-79.75z"/>
		</g>
	</g>
	<g>
		<g>
			<path class="st2" d="M1592.84-111.1v-18.72h3.13v7.88h8.87v-7.88h3.12v18.72h-3.12v-7.9h-8.87v7.9H1592.84z"/>
			<path class="st2" d="M1611.6-111.1v-18.72h12.09v2.94h-8.96v4.62h7.4v2.94h-7.4v5.29h8.96v2.94H1611.6z"/>
			<path class="st2" d="M1625.25-111.1l6.34-9.46l-6.16-9.26h3.83l4.26,6.59l4.22-6.59h3.86l-6.16,9.26l6.32,9.46h-3.83l-4.41-6.8
				l-4.42,6.8H1625.25z"/>
			<path class="st2" d="M1644.9-114.35v-3.21h3.21v3.21H1644.9z M1644.92-123.36v-3.21h3.21v3.21H1644.92z"/>
			<path class="st2" d="M1598.39-79.51c-0.95,0-1.84-0.2-2.67-0.59c-0.82-0.39-1.53-0.94-2.13-1.63s-1.02-1.5-1.28-2.42l3.02-0.81
				c0.12,0.5,0.34,0.94,0.67,1.3c0.33,0.36,0.71,0.65,1.14,0.84c0.44,0.2,0.89,0.3,1.36,0.3c0.61,0,1.16-0.15,1.66-0.44
				c0.5-0.29,0.9-0.69,1.2-1.19c0.29-0.5,0.44-1.05,0.44-1.66s-0.15-1.16-0.45-1.66c-0.3-0.5-0.7-0.89-1.2-1.18
				c-0.5-0.29-1.05-0.44-1.65-0.44c-0.72,0-1.32,0.13-1.79,0.39c-0.47,0.26-0.83,0.54-1.08,0.83l-2.68-0.86l0.57-9.91h10.17v2.94
				h-8.49l1.17-1.1l-0.42,6.89l-0.57-0.7c0.49-0.44,1.05-0.77,1.69-0.99c0.64-0.22,1.26-0.33,1.86-0.33c1.17,0,2.21,0.27,3.11,0.8
				c0.91,0.53,1.62,1.26,2.13,2.18c0.52,0.92,0.77,1.96,0.77,3.13s-0.3,2.23-0.91,3.18c-0.61,0.95-1.41,1.71-2.4,2.27
				C1600.66-79.79,1599.57-79.51,1598.39-79.51z"/>
			<path class="st2" d="M1614.13-98.98c1.22,0,2.32,0.29,3.3,0.86c0.98,0.58,1.75,1.37,2.32,2.39c0.57,1.02,0.85,2.19,0.85,3.52
				v5.71c0,1.41-0.28,2.65-0.85,3.7c-0.57,1.05-1.36,1.87-2.39,2.44c-1.02,0.57-2.22,0.86-3.59,0.86c-0.94,0-1.84-0.16-2.68-0.49
				c-0.84-0.32-1.59-0.83-2.26-1.5l2.25-2.2c0.34,0.39,0.74,0.7,1.21,0.92c0.47,0.22,0.96,0.33,1.48,0.33
				c0.73,0,1.37-0.17,1.91-0.51s0.97-0.79,1.27-1.34c0.3-0.55,0.46-1.14,0.46-1.77v-3.11l0.56,0.62c-0.53,0.62-1.17,1.11-1.92,1.46
				c-0.75,0.35-1.55,0.53-2.38,0.53c-1.17,0-2.21-0.27-3.11-0.81c-0.91-0.54-1.62-1.27-2.13-2.19s-0.77-1.97-0.77-3.14
				c0-1.17,0.29-2.23,0.88-3.18c0.59-0.95,1.38-1.7,2.36-2.26C1611.88-98.7,1612.96-98.98,1614.13-98.98z M1614.13-95.99
				c-0.61,0-1.16,0.15-1.66,0.44c-0.5,0.29-0.9,0.69-1.2,1.19s-0.44,1.05-0.44,1.66c0,0.61,0.14,1.16,0.43,1.66
				c0.29,0.5,0.68,0.9,1.18,1.2c0.5,0.29,1.05,0.44,1.66,0.44s1.16-0.15,1.66-0.44c0.5-0.29,0.9-0.69,1.2-1.2
				c0.3-0.5,0.45-1.06,0.45-1.66c0-0.59-0.15-1.13-0.44-1.63c-0.29-0.5-0.69-0.9-1.19-1.2
				C1615.28-95.84,1614.73-95.99,1614.13-95.99z"/>
			<path class="st2" d="M1624.24-79.9v-18.72h7.42c1.26,0,2.3,0.25,3.11,0.76s1.41,1.15,1.81,1.94c0.39,0.79,0.59,1.6,0.59,2.44
				c0,1.03-0.25,1.91-0.73,2.63s-1.16,1.2-2,1.46v-0.65c1.18,0.27,2.07,0.83,2.68,1.68c0.61,0.85,0.92,1.82,0.92,2.9
				c0,1.11-0.21,2.08-0.64,2.91c-0.42,0.83-1.06,1.48-1.89,1.95c-0.84,0.47-1.87,0.7-3.1,0.7H1624.24z M1627.41-91.14h4.21
				c0.45,0,0.85-0.09,1.21-0.26s0.64-0.43,0.84-0.77s0.31-0.75,0.31-1.25c0-0.65-0.21-1.19-0.62-1.63c-0.42-0.43-1-0.65-1.74-0.65
				h-4.21V-91.14z M1627.41-82.85h4.62c0.55,0,1.04-0.11,1.47-0.33c0.43-0.22,0.77-0.53,1.02-0.94c0.25-0.4,0.37-0.88,0.37-1.44
				c0-0.5-0.11-0.95-0.33-1.35c-0.22-0.4-0.53-0.72-0.95-0.96s-0.92-0.36-1.5-0.36h-4.71V-82.85z"/>
			<path class="st2" d="M1639.34-79.9l5.9-18.72h4.59l5.9,18.72h-3.22l-5.36-16.8h0.7l-5.29,16.8H1639.34z M1642.63-83.95v-2.92
				h9.83v2.92H1642.63z"/>
			<path class="st2" d="M1664.12-98.98c1.22,0,2.32,0.29,3.3,0.86c0.98,0.58,1.75,1.37,2.32,2.39c0.57,1.02,0.85,2.19,0.85,3.52
				v5.71c0,1.41-0.28,2.65-0.85,3.7c-0.57,1.05-1.36,1.87-2.39,2.44c-1.02,0.57-2.22,0.86-3.59,0.86c-0.94,0-1.84-0.16-2.68-0.49
				c-0.84-0.32-1.59-0.83-2.26-1.5l2.25-2.2c0.34,0.39,0.74,0.7,1.21,0.92c0.47,0.22,0.96,0.33,1.48,0.33
				c0.73,0,1.37-0.17,1.91-0.51s0.97-0.79,1.27-1.34c0.3-0.55,0.46-1.14,0.46-1.77v-3.11l0.56,0.62c-0.53,0.62-1.17,1.11-1.92,1.46
				c-0.75,0.35-1.55,0.53-2.38,0.53c-1.17,0-2.21-0.27-3.11-0.81c-0.91-0.54-1.62-1.27-2.13-2.19s-0.77-1.97-0.77-3.14
				c0-1.17,0.29-2.23,0.88-3.18c0.59-0.95,1.38-1.7,2.36-2.26C1661.88-98.7,1662.95-98.98,1664.12-98.98z M1664.12-95.99
				c-0.61,0-1.16,0.15-1.66,0.44c-0.5,0.29-0.9,0.69-1.2,1.19s-0.44,1.05-0.44,1.66c0,0.61,0.14,1.16,0.43,1.66
				c0.29,0.5,0.68,0.9,1.18,1.2c0.5,0.29,1.05,0.44,1.66,0.44s1.16-0.15,1.66-0.44c0.5-0.29,0.9-0.69,1.2-1.2
				c0.3-0.5,0.45-1.06,0.45-1.66c0-0.59-0.15-1.13-0.44-1.63c-0.29-0.5-0.69-0.9-1.19-1.2
				C1665.28-95.84,1664.73-95.99,1664.12-95.99z"/>
			<path class="st2" d="M1672.93-79.9l5.9-18.72h4.59l5.9,18.72h-3.22l-5.36-16.8h0.7l-5.29,16.8H1672.93z M1676.22-83.95v-2.92
				h9.83v2.92H1676.22z"/>
		</g>
	</g>
</g>
<g id="Фон">
	<linearGradient id="SVGID_1_" gradientUnits="userSpaceOnUse" x1="508.2163" y1="1513.9153" x2="1483.1548" y2="488.8489">
		<stop  offset="0" style="stop-color:#1A5B9C"/>
		<stop  offset="1" style="stop-color:#59BA9A"/>
	</linearGradient>
	<path class="st3" d="M997,2000L997,2000C444.71,2000-3,1552.29-3,1000v0C-3,447.71,444.71,0,997,0h0
		c552.28,0,1000,447.71,1000,1000v0C1997,1552.29,1549.29,2000,997,2000z"/>
</g>
<g id="Лого">
	<path class="st2" d="M1411.76,1084.18c-11.51-32.68-37.4-58.57-70.08-70.08c-0.22-0.08-0.44-0.16-0.67-0.23
		c-0.11-0.04-0.23-0.09-0.34-0.12c-0.56-0.19-1.12-0.38-1.68-0.56c-11.14-3.61-23.04-5.57-35.38-5.57
		c-12.98,0-25.44,2.15-37.07,6.13c-16.72,5.71-31.7,15.17-43.93,27.41c-12.16,12.14-21.61,27-27.35,43.6
		c-4.07,11.74-6.27,24.36-6.27,37.49c0,12.35,1.95,24.25,5.56,35.39l-0.79,0.8l-1.08,1.08l-143.19,143.18v-292.25l71.21-71.2
		l70.31-70.31l0.94-0.94l1.82-1.81l1.5-1.5l71.57-71.56l-1-1c0.49,0.17,0.99,0.35,1.49,0.51c11.41,3.82,23.61,5.87,36.3,5.87
		c13.1,0,25.68-2.2,37.41-6.25c16.63-5.73,31.53-15.19,43.69-27.38c11.91-11.92,21.2-26.44,26.95-42.65
		c4.26-11.99,6.58-24.89,6.58-38.35c0-12.69-2.06-24.89-5.87-36.29c-0.19-0.59-0.39-1.19-0.6-1.78
		c-11.26-32-36.32-57.49-68.04-69.34l-2.7-0.97c-0.47-0.17-0.95-0.33-1.44-0.49c-11.31-3.74-23.41-5.76-35.97-5.76
		c-14.11,0-27.63,2.55-40.11,7.22c-15.5,5.78-29.4,14.83-40.89,26.31c-12.16,12.14-21.61,27-27.35,43.6
		c-4.07,11.74-6.27,24.36-6.27,37.49c0,12.57,2.02,24.66,5.76,35.97L1049.49,865.1v2.94l-0.04-0.04h-2.85l2.9-2.9V722.23h-2.38
		l2.38-2.38V430.89c0.07-0.06,0.15-0.12,0.22-0.18c0.16-0.13,0.31-0.25,0.46-0.38c7.39-6.23,13.98-13.38,19.6-21.26
		c13.36-18.74,21.22-41.68,21.22-66.45c0-6.54-0.55-12.96-1.6-19.2c-2.33-13.82-7.14-26.81-13.95-38.48
		c-3.25-5.56-6.95-10.82-11.05-15.74c-4.5-5.39-9.48-10.36-14.89-14.85c-15.17-12.58-33.64-21.33-53.93-24.75
		c-6.24-1.05-12.65-1.6-19.2-1.6c-5.89,0-11.67,0.45-17.33,1.3c-20.8,3.15-39.75,11.88-55.3,24.63
		c-5.47,4.49-10.52,9.47-15.09,14.88c-4.23,5.02-8.03,10.42-11.37,16.13c-7.11,12.2-12.05,25.83-14.25,40.36
		c-0.86,5.65-1.3,11.44-1.3,17.32c0,25.05,8.03,48.21,21.66,67.07c5.62,7.78,12.19,14.82,19.54,20.96c0.03,0.02,0.04,0.04,0.07,0.06
		c0.24,0.2,0.48,0.4,0.73,0.6v290.96l-0.05-0.05l-73.53-73.54l-72.17-72.17v-0.18c0.12-0.36,0.24-0.72,0.35-1.08
		c3.51-11,5.41-22.72,5.41-34.89c0-12.57-2.02-24.65-5.76-35.96c-5.76-17.45-15.6-33.05-28.39-45.66
		c-13.02-12.84-29.08-22.58-47.02-28.04c-10.58-3.23-21.81-4.96-33.45-4.96s-22.87,1.73-33.45,4.96c-0.89,0.26-1.78,0.55-2.65,0.84
		c-0.26,0.09-0.53,0.17-0.8,0.26c-0.48,0.17-0.97,0.34-1.45,0.52c-32.45,11.51-58.18,37.24-69.69,69.69
		c-0.33,0.91-0.65,1.84-0.95,2.77c-3.66,11.2-5.64,23.16-5.64,35.59c0,12.61,2.04,24.75,5.8,36.09c5.59,16.87,15,32.01,27.2,44.38
		c12.38,12.57,27.65,22.29,44.72,28.09c11.58,3.93,23.99,6.06,36.9,6.06c12.16,0,23.89-1.9,34.89-5.41l0.46-0.46l0.24,0.24
		l72.39,72.39l0.89-0.89v1.78l71.73,71.73l73.61,73.61l0.41,0.41V1159l-1.4-1.4l-72.67-72.67l-71.18-71.18l-0.16-2.74
		c3.51-11,5.41-22.72,5.41-34.89c0-12.57-2.02-24.65-5.76-35.96c-5.76-17.45-15.6-33.05-28.39-45.66
		c-11.87-11.72-26.29-20.85-42.36-26.51c-11.92-4.21-24.75-6.49-38.11-6.49c-12.88,0-25.27,2.13-36.83,6.05
		c-0.02,0.01-0.04,0.01-0.07,0.02l-1.22,0.43c-0.08,0.03-0.16,0.05-0.24,0.09c-32.46,11.51-58.19,37.25-69.7,69.71
		c-0.33,0.93-0.66,1.87-0.96,2.82c-3.64,11.18-5.61,23.12-5.61,35.52c0,13.19,2.22,25.84,6.32,37.63
		c5.64,16.26,14.85,30.85,26.69,42.85c12.38,12.57,27.65,22.29,44.72,28.09c11.58,3.93,23.99,6.06,36.9,6.06
		c12.17,0,23.9-1.9,34.9-5.42l0.4-0.4l0.21,0.21l72.41,72.41l0.94,0.94l145.76,145.76v287.73c-0.51,0.41-1.01,0.83-1.52,1.25
		c-1.39,1.16-2.76,2.34-4.09,3.56c-7.18,6.57-13.51,14.03-18.83,22.22c-11.66,17.95-18.44,39.36-18.44,62.36
		c0,5.78,0.43,11.45,1.25,17c2.39,16.06,8.1,31.02,16.42,44.18c2.98,4.72,6.3,9.21,9.92,13.42c4.63,5.39,9.74,10.34,15.28,14.8
		c15.46,12.43,34.21,20.92,54.75,23.98c5.55,0.82,11.23,1.25,17,1.25c7.17,0,14.19-0.66,21-1.92c19.97-3.7,38.12-12.57,53.01-25.17
		c5.12-4.33,9.85-9.11,14.14-14.26c3.18-3.82,6.13-7.87,8.8-12.09c7.63-12.06,13.06-25.64,15.76-40.18c1.26-6.81,1.92-13.83,1.92-21
		c0-25.2-8.13-48.49-21.91-67.41c-4.53-6.23-9.69-11.99-15.36-17.18c-0.9-0.82-1.82-1.64-2.76-2.44c-0.19-0.17-0.39-0.33-0.6-0.51
		v-145.02l145.77-145.77l71.57-71.56l0.49-0.49c11.41,3.81,23.61,5.87,36.3,5.87c13.1,0,25.68-2.2,37.41-6.25
		c16.63-5.73,31.53-15.19,43.69-27.38c12.18-12.19,21.62-27.1,27.33-43.74c4.02-11.68,6.2-24.21,6.2-37.26
		c0-12.69-2.06-24.88-5.87-36.3C1412.17,1085.36,1411.97,1084.77,1411.76,1084.18z M976.31,1735.42
		c-28.75,0-52.06-23.31-52.06-52.06c0-28.75,23.31-52.06,52.06-52.06c28.75,0,52.06,23.31,52.06,52.06
		C1028.38,1712.11,1005.07,1735.42,976.31,1735.42z"/>
</g>
</svg>
