<svg width="30" height="32" viewBox="0 0 30 32" fill="none" xmlns="http://www.w3.org/2000/svg">
<path d="M28.5 21.9999V9.99985C28.4995 9.47377 28.3606 8.95707 28.0973 8.5016C27.834 8.04613 27.4556 7.6679 27 7.40485L16.5 1.40485C16.0439 1.14155 15.5266 1.00293 15 1.00293C14.4734 1.00293 13.9561 1.14155 13.5 1.40485L3 7.40485C2.54439 7.6679 2.16597 8.04613 1.90269 8.5016C1.63941 8.95707 1.50054 9.47377 1.5 9.99985V21.9999C1.50054 22.5259 1.63941 23.0426 1.90269 23.4981C2.16597 23.9536 2.54439 24.3318 3 24.5949L13.5 30.5949C13.9561 30.8582 14.4734 30.9968 15 30.9968C15.5266 30.9968 16.0439 30.8582 16.5 30.5949L27 24.5949C27.4556 24.3318 27.834 23.9536 28.0973 23.4981C28.3606 23.0426 28.4995 22.5259 28.5 21.9999Z" stroke="#1D2B64" stroke-width="2" stroke-linecap="round" stroke-linejoin="round"/>
<path d="M15 22C18.3137 22 21 19.3137 21 16C21 12.6863 18.3137 10 15 10C11.6863 10 9 12.6863 9 16C9 19.3137 11.6863 22 15 22Z" stroke="#1D2B64" stroke-width="2" stroke-linecap="round" stroke-linejoin="round"/>
</svg>
